<?xml version="1.0" encoding="UTF-8"?>
<svg version="1.1" xmlns="http://www.w3.org/2000/svg" width="439" height="396">
<path d="M0 0 C9.34078011 3.16636614 15.14387316 18.67217762 19.6171875 26.68359375 C22.61826032 32.05140613 25.81772353 37.2678973 29.109375 42.4609375 C30.53515625 44.859375 30.53515625 44.859375 31.53515625 47.859375 C33.15740165 49.56930934 34.8292905 51.23285184 36.53515625 52.859375 C37.13328125 53.66375 37.73140625 54.468125 38.34765625 55.296875 C39.43046875 56.0703125 39.43046875 56.0703125 40.53515625 56.859375 C42.46782888 56.43080821 44.39898237 55.98878342 46.30764771 55.46353149 C57.14601136 52.52389393 68.12859876 51.60634591 79.3203125 51.84765625 C80.82566055 51.87930374 80.82566055 51.87930374 82.36141968 51.91159058 C86.49024043 52.01235373 90.61713289 52.13253841 94.74389648 52.2980957 C108.53272633 53.35647309 108.53272633 53.35647309 120.703125 48.01953125 C122.00251562 46.65344928 123.28228234 45.26824082 124.53515625 43.859375 C125.92168929 42.85793935 127.33547789 41.89199819 128.78515625 40.984375 C132.77646991 38.39885146 136.62310087 35.64865402 140.47265625 32.859375 C145.38894837 29.30592356 150.36754878 26.02105872 155.64453125 23.015625 C157.67613771 21.87460396 157.67613771 21.87460396 159.53515625 19.859375 C161.84765625 19.59375 161.84765625 19.59375 164.53515625 19.609375 C165.42203125 19.60421875 166.30890625 19.5990625 167.22265625 19.59375 C169.53515625 19.859375 169.53515625 19.859375 171.53515625 21.859375 C171.41015625 24.859375 171.41015625 24.859375 170.53515625 27.859375 C168.48046875 29.046875 168.48046875 29.046875 166.53515625 29.859375 C166.43328335 36.12143981 166.36349344 42.38328892 166.31542969 48.64599609 C166.29538157 50.77400702 166.26813571 52.90196332 166.23339844 55.02978516 C166.18458077 58.09811933 166.16211899 61.16572173 166.14453125 64.234375 C166.12388611 65.17740479 166.10324097 66.12043457 166.08197021 67.09204102 C166.08014131 72.54217284 166.80062435 76.22853594 169.49749756 80.96899414 C171.1809485 84.0358633 172.10929871 87.30231927 173.11328125 90.640625 C173.32958191 91.33957886 173.54588257 92.03853271 173.76873779 92.75866699 C174.44741289 94.95695606 175.11644436 97.15803731 175.78515625 99.359375 C176.24805858 100.86478007 176.71159495 102.36999034 177.17578125 103.875 C178.30289997 107.53425189 179.42138981 111.19603808 180.53515625 114.859375 C181.19515625 114.859375 181.85515625 114.859375 182.53515625 114.859375 C183.79608791 113.55404433 184.99441151 112.18787321 186.16015625 110.796875 C196.66867539 98.74132073 209.41851105 90.1745963 224.97265625 86.234375 C225.79314453 86.0178125 226.61363281 85.80125 227.45898438 85.578125 C245.71626563 80.857168 262.48433819 81.19116295 278.98828125 90.90625 C279.49875 91.22078125 280.00921875 91.5353125 280.53515625 91.859375 C280.53515625 92.519375 280.53515625 93.179375 280.53515625 93.859375 C281.09203125 94.08625 281.64890625 94.313125 282.22265625 94.546875 C291.32908169 99.71538674 298.02088066 110.7084028 302.53515625 119.859375 C302.96699219 120.71273437 303.39882813 121.56609375 303.84375 122.4453125 C311.26622009 137.8188559 313.9854405 154.94685691 308.8984375 171.4140625 C305.47841663 180.0572098 300.31363092 186.62515742 293.53515625 192.859375 C292.77203125 193.684375 292.00890625 194.509375 291.22265625 195.359375 C279.0345102 206.69718528 260.58068208 217.33760484 243.6171875 217.078125 C237.84947142 216.47213607 232.57588203 214.02254701 228.53515625 209.859375 C227.72265625 207.109375 227.72265625 207.109375 227.53515625 204.859375 C226.54515625 204.529375 225.55515625 204.199375 224.53515625 203.859375 C222.20513055 200.49378232 221.74347854 196.88693932 221.53515625 192.859375 C223.28839936 187.59964566 225.74906805 185.50389153 230.53515625 182.859375 C233.59181359 182.12893551 236.66341506 181.81589825 239.78515625 181.484375 C247.53061313 180.45302649 253.36702575 178.9170006 259.53515625 173.859375 C260.16292969 173.39144531 260.79070312 172.92351562 261.4375 172.44140625 C268.04950512 166.81324435 272.43961478 157.38149621 274.11328125 148.9453125 C274.35976202 143.25864912 273.06891199 138.35524744 269.53515625 133.859375 C261.47579689 126.19414958 254.62515368 123.0677131 243.53515625 122.859375 C237.21111914 123.62262086 233.88072945 126.89687562 229.453125 131.1796875 C227.53515625 132.859375 227.53515625 132.859375 225.53515625 132.859375 C225.2721875 133.58640625 225.00921875 134.3134375 224.73828125 135.0625 C223.51771934 137.89991016 222.0957677 140.11366732 220.28515625 142.609375 C219.34929687 143.93001953 219.34929687 143.93001953 218.39453125 145.27734375 C217.27443923 146.83276565 216.14252621 148.37990725 214.98828125 149.91015625 C211.49932171 154.74030185 209.23290772 159.73250466 207.03515625 165.234375 C202.02957836 177.74899781 195.47919506 192.38810386 183.53515625 199.859375 C180.78515625 200.046875 180.78515625 200.046875 178.53515625 199.859375 C178.30201742 205.57127629 178.88595619 210.97248072 179.6875 216.62915039 C180.37574581 221.53113402 180.92108957 226.43388966 181.41015625 231.359375 C183.33595711 250.22831319 185.89949529 269.01728672 188.83105469 287.75354004 C190.44144015 298.05797607 191.94608194 308.33771771 192.84765625 318.734375 C192.92387207 319.61222656 193.00008789 320.49007813 193.07861328 321.39453125 C193.55819227 327.59660534 193.53515625 333.59737247 193.53515625 339.859375 C104.43515625 339.859375 15.33515625 339.859375 -76.46484375 339.859375 C-72.98522665 314.34218293 -72.98522665 314.34218293 -70.21484375 303.046875 C-69.9103833 301.78407715 -69.60592285 300.5212793 -69.29223633 299.22021484 C-68.3714299 295.42776662 -67.42025774 291.64325762 -66.46484375 287.859375 C-66.0469458 286.18077393 -66.0469458 286.18077393 -65.62060547 284.46826172 C-60.93550149 265.87644576 -54.25236469 248.4737523 -45.75927734 231.29150391 C-41.16584272 221.98380527 -38.26158123 213.08366683 -36.46484375 202.859375 C-36.09552734 201.11720703 -36.09552734 201.11720703 -35.71875 199.33984375 C-35.41728031 195.20738996 -36.4881507 192.21420992 -37.90234375 188.421875 C-44.06351114 169.55818424 -40.64777634 151.16749148 -33.79284668 133.08691406 C-32.0272416 128.41052351 -30.34501635 123.71223845 -28.72265625 118.984375 C-28.47240692 118.25677979 -28.22215759 117.52918457 -27.96432495 116.77954102 C-27.43769643 115.24694981 -26.91167282 113.71415062 -26.38623047 112.18115234 C-25.60105576 109.89206238 -24.81235218 107.6042095 -24.0234375 105.31640625 C-17.01103864 85.91325789 -17.01103864 85.91325789 -12.83984375 65.796875 C-12.61385843 64.09462671 -12.38466153 62.39280187 -12.15234375 60.69140625 C-12.04148437 59.87365723 -11.930625 59.0559082 -11.81640625 58.21337891 C-11.30169176 54.76693649 -10.57558588 51.39071958 -9.83984375 47.984375 C-8.00925117 39.1476925 -7.36919022 30.3741262 -7.52734375 21.359375 C-7.58564264 14.83961563 -7.07471576 8.18694682 -5.46484375 1.859375 C-2.46484375 -0.140625 -2.46484375 -0.140625 0 0 Z " fill="#252332" transform="translate(101.46484375,56.140625)"/>
<path d="M0 0 C9.34078011 3.16636614 15.14387316 18.67217762 19.6171875 26.68359375 C22.61826032 32.05140613 25.81772353 37.2678973 29.109375 42.4609375 C30.53515625 44.859375 30.53515625 44.859375 31.53515625 47.859375 C33.15740165 49.56930934 34.8292905 51.23285184 36.53515625 52.859375 C37.13328125 53.66375 37.73140625 54.468125 38.34765625 55.296875 C39.43046875 56.0703125 39.43046875 56.0703125 40.53515625 56.859375 C42.46782888 56.43080821 44.39898237 55.98878342 46.30764771 55.46353149 C57.14601136 52.52389393 68.12859876 51.60634591 79.3203125 51.84765625 C80.82566055 51.87930374 80.82566055 51.87930374 82.36141968 51.91159058 C86.49024043 52.01235373 90.61713289 52.13253841 94.74389648 52.2980957 C108.53272633 53.35647309 108.53272633 53.35647309 120.703125 48.01953125 C122.00251562 46.65344928 123.28228234 45.26824082 124.53515625 43.859375 C125.92168929 42.85793935 127.33547789 41.89199819 128.78515625 40.984375 C132.77646991 38.39885146 136.62310087 35.64865402 140.47265625 32.859375 C145.38894837 29.30592356 150.36754878 26.02105872 155.64453125 23.015625 C157.67613771 21.87460396 157.67613771 21.87460396 159.53515625 19.859375 C161.84765625 19.59375 161.84765625 19.59375 164.53515625 19.609375 C165.42203125 19.60421875 166.30890625 19.5990625 167.22265625 19.59375 C169.53515625 19.859375 169.53515625 19.859375 171.53515625 21.859375 C171.41015625 24.859375 171.41015625 24.859375 170.53515625 27.859375 C168.48046875 29.046875 168.48046875 29.046875 166.53515625 29.859375 C166.43328335 36.12143981 166.36349344 42.38328892 166.31542969 48.64599609 C166.29538157 50.77400702 166.26813571 52.90196332 166.23339844 55.02978516 C166.18458077 58.09811933 166.16211899 61.16572173 166.14453125 64.234375 C166.12388611 65.17740479 166.10324097 66.12043457 166.08197021 67.09204102 C166.08014131 72.54217284 166.80062435 76.22853594 169.49749756 80.96899414 C171.1809485 84.0358633 172.10929871 87.30231927 173.11328125 90.640625 C173.32958191 91.33957886 173.54588257 92.03853271 173.76873779 92.75866699 C174.44741289 94.95695606 175.11644436 97.15803731 175.78515625 99.359375 C176.24805858 100.86478007 176.71159495 102.36999034 177.17578125 103.875 C178.30289997 107.53425189 179.42138981 111.19603808 180.53515625 114.859375 C181.19515625 114.859375 181.85515625 114.859375 182.53515625 114.859375 C183.79608791 113.55404433 184.99441151 112.18787321 186.16015625 110.796875 C196.66867539 98.74132073 209.41851105 90.1745963 224.97265625 86.234375 C225.79314453 86.0178125 226.61363281 85.80125 227.45898438 85.578125 C245.71626563 80.857168 262.48433819 81.19116295 278.98828125 90.90625 C279.49875 91.22078125 280.00921875 91.5353125 280.53515625 91.859375 C280.53515625 92.519375 280.53515625 93.179375 280.53515625 93.859375 C281.09203125 94.08625 281.64890625 94.313125 282.22265625 94.546875 C291.32908169 99.71538674 298.02088066 110.7084028 302.53515625 119.859375 C302.96699219 120.71273437 303.39882813 121.56609375 303.84375 122.4453125 C311.26622009 137.8188559 313.9854405 154.94685691 308.8984375 171.4140625 C305.47841663 180.0572098 300.31363092 186.62515742 293.53515625 192.859375 C292.77203125 193.684375 292.00890625 194.509375 291.22265625 195.359375 C279.0345102 206.69718528 260.58068208 217.33760484 243.6171875 217.078125 C237.84947142 216.47213607 232.57588203 214.02254701 228.53515625 209.859375 C227.72265625 207.109375 227.72265625 207.109375 227.53515625 204.859375 C226.54515625 204.529375 225.55515625 204.199375 224.53515625 203.859375 C222.20513055 200.49378232 221.74347854 196.88693932 221.53515625 192.859375 C223.28839936 187.59964566 225.74906805 185.50389153 230.53515625 182.859375 C233.59181359 182.12893551 236.66341506 181.81589825 239.78515625 181.484375 C247.53061313 180.45302649 253.36702575 178.9170006 259.53515625 173.859375 C260.16292969 173.39144531 260.79070312 172.92351562 261.4375 172.44140625 C268.04950512 166.81324435 272.43961478 157.38149621 274.11328125 148.9453125 C274.35976202 143.25864912 273.06891199 138.35524744 269.53515625 133.859375 C261.47579689 126.19414958 254.62515368 123.0677131 243.53515625 122.859375 C237.21111914 123.62262086 233.88072945 126.89687562 229.453125 131.1796875 C227.53515625 132.859375 227.53515625 132.859375 225.53515625 132.859375 C225.2721875 133.58640625 225.00921875 134.3134375 224.73828125 135.0625 C223.51771934 137.89991016 222.0957677 140.11366732 220.28515625 142.609375 C219.34929687 143.93001953 219.34929687 143.93001953 218.39453125 145.27734375 C217.27443923 146.83276565 216.14252621 148.37990725 214.98828125 149.91015625 C211.49932171 154.74030185 209.23290772 159.73250466 207.03515625 165.234375 C202.02957836 177.74899781 195.47919506 192.38810386 183.53515625 199.859375 C180.78515625 200.046875 180.78515625 200.046875 178.53515625 199.859375 C178.30201742 205.57127629 178.88595619 210.97248072 179.6875 216.62915039 C180.37574581 221.53113402 180.92108957 226.43388966 181.41015625 231.359375 C183.33595711 250.22831319 185.89949529 269.01728672 188.83105469 287.75354004 C190.44144015 298.05797607 191.94608194 308.33771771 192.84765625 318.734375 C192.92387207 319.61222656 193.00008789 320.49007813 193.07861328 321.39453125 C193.55530932 327.55932218 193.58973525 333.67706242 193.53515625 339.859375 C189.90515625 339.859375 186.27515625 339.859375 182.53515625 339.859375 C181.64458582 337.1876637 181.34141599 335.31377618 181.17797852 332.54663086 C181.12444717 331.67820053 181.07091583 330.8097702 181.01576233 329.9150238 C180.96157639 328.97755814 180.90739044 328.04009247 180.8515625 327.07421875 C180.72735842 325.07876702 180.60300459 323.0833246 180.47851562 321.08789062 C180.28748367 317.95041709 180.09860133 314.81283904 179.9128418 311.67504883 C179.73168918 308.64104248 179.54204951 305.6076514 179.3515625 302.57421875 C179.29940079 301.6509227 179.24723907 300.72762665 179.1934967 299.77635193 C178.85395298 294.44213421 178.14823526 289.36653796 176.96226501 284.15235901 C175.69849552 277.36766274 176.63001831 270.42232981 177.30859375 263.6171875 C177.65669669 259.37993452 177.8321529 255.10468008 177.53515625 250.859375 C177.20515625 250.529375 176.87515625 250.199375 176.53515625 249.859375 C176.20991482 247.19749558 175.94038747 244.54898644 175.703125 241.87890625 C175.54306234 240.22323514 175.38223009 238.56763827 175.22070312 236.91210938 C174.96965695 234.29706548 174.72355086 231.68194007 174.4909668 229.06518555 C174.2645069 226.54303925 174.01671394 224.02370436 173.765625 221.50390625 C173.70191208 220.72868118 173.63819916 219.95345612 173.57255554 219.15473938 C173.04156122 214.04209845 171.64865853 211.0774396 168.53515625 206.859375 C168.31120923 200.9900969 171.04562669 195.35085178 173.52734375 190.1484375 C174.94933751 186.91863772 175.85622393 183.59060218 176.8125 180.19921875 C177.53515625 177.859375 177.53515625 177.859375 179.16015625 174.296875 C182.08959796 166.97327073 181.62419802 159.94857658 180.34765625 152.296875 C180.2081958 151.42482422 180.06873535 150.55277344 179.92504883 149.65429688 C177.86303467 137.25277073 174.45110886 125.32028432 170.75341797 113.32299805 C168.86451102 107.1471718 167.24517333 100.94015757 165.91601562 94.61914062 C165.47967951 92.56111063 165.47967951 92.56111063 164.53515625 89.859375 C163.54515625 89.529375 162.55515625 89.199375 161.53515625 88.859375 C161.86515625 88.199375 162.19515625 87.539375 162.53515625 86.859375 C162.74462302 82.73986192 162.76284791 79.63352663 161.59765625 75.671875 C158.8155783 65.68912473 159.39954846 54.83257889 159.47265625 44.546875 C159.47716797 43.31775391 159.48167969 42.08863281 159.48632812 40.82226562 C159.49795336 37.83458144 159.51429066 34.84700645 159.53515625 31.859375 C158.21515625 31.859375 156.89515625 31.859375 155.53515625 31.859375 C155.53515625 32.519375 155.53515625 33.179375 155.53515625 33.859375 C153.54354215 35.38378338 151.55927032 36.78884369 149.47265625 38.171875 C148.27699892 38.97865585 147.08168366 39.78594392 145.88671875 40.59375 C145.01901855 41.17672852 145.01901855 41.17672852 144.13378906 41.77148438 C142.16968193 43.10808508 140.25685664 44.50825429 138.34765625 45.921875 C135.53515625 47.859375 135.53515625 47.859375 133.53515625 47.859375 C133.53515625 48.519375 133.53515625 49.179375 133.53515625 49.859375 C131.68792801 51.08202208 129.7796774 52.21317194 127.84765625 53.296875 C126.79191406 53.89371094 125.73617187 54.49054688 124.6484375 55.10546875 C123.62105469 55.68425781 122.59367188 56.26304688 121.53515625 56.859375 C118.84995593 58.40838337 116.72696636 59.66756489 114.53515625 61.859375 C112.55986023 62.09315491 112.55986023 62.09315491 110.1081543 62.07055664 C109.18926926 62.06717789 108.27038422 62.06379913 107.32365417 62.06031799 C106.32481705 62.04685837 105.32597992 62.03339874 104.296875 62.01953125 C103.2651265 62.01432968 102.23337799 62.00912811 101.17036438 62.00376892 C97.85432081 61.98591175 94.5385818 61.9548059 91.22265625 61.921875 C86.89325231 61.88513911 82.56387547 61.85474187 78.234375 61.83203125 C77.19535538 61.82648727 76.15633575 61.8209433 75.08583069 61.81523132 C68.6738092 61.80276278 62.37903742 62.02184059 55.99389648 62.63012695 C52.89760754 62.91881877 49.83080793 62.95932261 46.72265625 62.921875 C45.72621094 62.91285156 44.72976562 62.90382812 43.703125 62.89453125 C42.62998047 62.87712891 42.62998047 62.87712891 41.53515625 62.859375 C41.53515625 63.519375 41.53515625 64.179375 41.53515625 64.859375 C38.09874171 65.28663791 36.86982364 65.11795744 34.078125 62.9609375 C33.30082031 62.14367187 32.52351563 61.32640625 31.72265625 60.484375 C30.93246094 59.67226562 30.14226562 58.86015625 29.328125 58.0234375 C27.53515625 55.859375 27.53515625 55.859375 27.53515625 53.859375 C26.87515625 53.859375 26.21515625 53.859375 25.53515625 53.859375 C24.89900391 52.66054687 24.89900391 52.66054687 24.25 51.4375 C20.67427836 44.741863 16.99701917 38.13759799 13.11328125 31.61328125 C11.53515625 28.859375 11.53515625 28.859375 9.98828125 25.62890625 C8.71018321 22.71092994 8.71018321 22.71092994 6.03515625 20.984375 C3.01073995 18.41362115 2.33560856 16.28541056 1.2109375 12.56640625 C0.67166257 10.64970427 0.67166257 10.64970427 -1.46484375 9.859375 C-1.46484375 11.179375 -1.46484375 12.499375 -1.46484375 13.859375 C-0.80484375 13.859375 -0.14484375 13.859375 0.53515625 13.859375 C1.07015365 24.53950832 -0.37109441 34.70168302 -2.04589844 45.22119141 C-2.44062908 47.7068903 -2.81783206 50.19464285 -3.19140625 52.68359375 C-4.66961322 62.28583078 -6.76210567 71.5256277 -9.46484375 80.859375 C-9.77292969 81.9525 -10.08101563 83.045625 -10.3984375 84.171875 C-11.21018029 86.97878047 -12.04488589 89.77345576 -12.90234375 92.56640625 C-13.28519531 93.8184082 -13.28519531 93.8184082 -13.67578125 95.09570312 C-14.19854237 96.80244055 -14.7245446 98.50818887 -15.25390625 100.21289062 C-16.80684501 105.31484346 -18.05049021 110.37911257 -19.00463867 115.62719727 C-19.61259432 118.57602403 -20.55545791 121.34912824 -21.546875 124.1875 C-23.22720812 129.07834192 -24.74892557 134.01898381 -26.2578125 138.96484375 C-26.94069291 141.20308471 -27.65816077 143.39500833 -28.453125 145.59765625 C-33.13973139 159.52420698 -31.21856268 174.47933429 -26.65625 188.09375 C-25.15399093 192.84187375 -23.86914546 197.85178625 -24.46484375 202.859375 C-25.83984375 204.6484375 -25.83984375 204.6484375 -27.46484375 205.859375 C-28.12484375 205.859375 -28.78484375 205.859375 -29.46484375 205.859375 C-29.61397217 206.76816406 -29.61397217 206.76816406 -29.76611328 207.6953125 C-30.92146887 214.1208195 -32.81508717 219.85251921 -35.33984375 225.859375 C-35.67886719 226.684375 -36.01789063 227.509375 -36.3671875 228.359375 C-37.049718 230.02028572 -37.73524619 231.67996786 -38.42382812 233.33837891 C-41.22930309 240.13231289 -43.9120227 246.96675815 -46.46484375 253.859375 C-47.12484375 253.859375 -47.78484375 253.859375 -48.46484375 253.859375 C-48.490625 254.4884375 -48.51640625 255.1175 -48.54296875 255.765625 C-48.5996875 256.6215625 -48.65640625 257.4775 -48.71484375 258.359375 C-48.78445312 259.61234375 -48.78445312 259.61234375 -48.85546875 260.890625 C-49.46484375 263.859375 -49.46484375 263.859375 -51.2578125 267.1796875 C-54.68086947 273.71252032 -55.93183361 281.08811603 -57.52734375 288.234375 C-57.70259583 289.0035022 -57.8778479 289.77262939 -58.05841064 290.56506348 C-60.85699009 302.90415285 -62.7576091 315.10696774 -63.89453125 327.71875 C-64.29635614 331.99143631 -65.11232274 335.79044625 -66.46484375 339.859375 C-69.76484375 339.859375 -73.06484375 339.859375 -76.46484375 339.859375 C-74.53397206 322.16891249 -70.81846172 305.10172178 -66.46484375 287.859375 C-66.0469458 286.18077393 -66.0469458 286.18077393 -65.62060547 284.46826172 C-60.93550149 265.87644576 -54.25236469 248.4737523 -45.75927734 231.29150391 C-41.16584272 221.98380527 -38.26158123 213.08366683 -36.46484375 202.859375 C-36.09552734 201.11720703 -36.09552734 201.11720703 -35.71875 199.33984375 C-35.41728031 195.20738996 -36.4881507 192.21420992 -37.90234375 188.421875 C-44.06351114 169.55818424 -40.64777634 151.16749148 -33.79284668 133.08691406 C-32.0272416 128.41052351 -30.34501635 123.71223845 -28.72265625 118.984375 C-28.47240692 118.25677979 -28.22215759 117.52918457 -27.96432495 116.77954102 C-27.43769643 115.24694981 -26.91167282 113.71415062 -26.38623047 112.18115234 C-25.60105576 109.89206238 -24.81235218 107.6042095 -24.0234375 105.31640625 C-17.01103864 85.91325789 -17.01103864 85.91325789 -12.83984375 65.796875 C-12.61385843 64.09462671 -12.38466153 62.39280187 -12.15234375 60.69140625 C-12.04148437 59.87365723 -11.930625 59.0559082 -11.81640625 58.21337891 C-11.30169176 54.76693649 -10.57558588 51.39071958 -9.83984375 47.984375 C-8.00925117 39.1476925 -7.36919022 30.3741262 -7.52734375 21.359375 C-7.58564264 14.83961563 -7.07471576 8.18694682 -5.46484375 1.859375 C-2.46484375 -0.140625 -2.46484375 -0.140625 0 0 Z " fill="#070709" transform="translate(101.46484375,56.140625)"/>
<path d="M0 0 C1.77511972 1.40636276 3.5269326 2.84282487 5.25 4.3125 C5.95898438 4.90933594 6.66796875 5.50617188 7.3984375 6.12109375 C20.5291917 18.18789356 28.24122202 35.66581974 29.453125 53.26171875 C29.6789818 66.45552004 27.21945128 75.53390436 18.25 85.3125 C17.60289062 86.14910156 16.95578125 86.98570312 16.2890625 87.84765625 C9.11615403 96.51835595 -1.69727776 103.4849812 -12.1953125 107.35546875 C-14.88950524 108.3067479 -14.88950524 108.3067479 -17.83984375 109.9140625 C-22.78569446 112.05445433 -27.89483603 111.63429661 -33.1875 111.5 C-34.20521484 111.48646484 -35.22292969 111.47292969 -36.27148438 111.45898438 C-38.76488214 111.4238661 -41.25715512 111.37468559 -43.75 111.3125 C-44.34732819 108.54985711 -44.75 106.15217231 -44.75 103.3125 C-45.08 102.6525 -45.41 101.9925 -45.75 101.3125 C-46.10294118 94.84191176 -46.10294118 94.84191176 -43.75 91.3125 C-40.72135296 90.30295099 -38.21500542 90.22302121 -35.05029297 90.17504883 C-23.87060032 89.92501206 -14.6257787 86.83810253 -6.265625 79.06640625 C-3.81444944 76.22986546 -1.97364535 73.13449705 -0.171875 69.85546875 C1.25 67.3125 1.25 67.3125 2.734375 65.30078125 C7.82678365 58.01978124 7.45754728 48.8291026 6.25 40.3125 C4.39698512 34.14122576 0.68671606 30.30671607 -4.39453125 26.50390625 C-4.84183594 26.11074219 -5.28914063 25.71757812 -5.75 25.3125 C-5.75 24.6525 -5.75 23.9925 -5.75 23.3125 C-6.61625 23.065 -7.4825 22.8175 -8.375 22.5625 C-11.75 21.3125 -11.75 21.3125 -14.75 19.25 C-20.13130906 15.77457123 -26.48563423 15.73622104 -32.75 16.3125 C-47.95952417 19.69239426 -57.50918535 34.38695392 -65.48828125 46.6015625 C-69.04705947 52.27350721 -71.78896705 58.11790582 -74 64.4375 C-76.94196773 72.24327815 -80.79015047 81.53984336 -86.8984375 87.359375 C-89.21884075 89.80705775 -89.61777342 91.7273572 -90.3125 95 C-90.94140625 97.94921875 -90.94140625 97.94921875 -91.75 100.3125 C-93.235 100.8075 -93.235 100.8075 -94.75 101.3125 C-93.74920006 95.94457304 -92.35711514 91.13092849 -90.3125 86.0625 C-84.0991445 70.16958475 -83.12566302 54.41478812 -88.875 38.125 C-90.01814711 34.45059857 -90.33611874 32.15483398 -89.75 28.3125 C-79.68309337 11.16729965 -61.61825882 0.04769196 -42.92138672 -5.14697266 C-28.71653556 -8.69598746 -12.31800706 -8.57710752 0 0 Z " fill="#282637" transform="translate(374.75,153.6875)"/>
<path d="M0 0 C6.37192531 0.63719253 10.70953484 2.47302323 16 6 C16 6.66 16 7.32 16 8 C16.66 8 17.32 8 18 8 C19.25390625 9.42578125 19.25390625 9.42578125 20.5625 11.3125 C21.21412109 12.23482422 21.21412109 12.23482422 21.87890625 13.17578125 C25.46055407 19.00375871 24.84432986 27.4115981 23.328125 33.85546875 C22.62857608 35.93101719 21.82528855 37.97116564 21 40 C20.41992188 39.89300781 19.83984375 39.78601563 19.2421875 39.67578125 C13.6067975 38.81094417 11.11385448 39.34079567 6 42 C-3.72921109 43.63539446 -3.72921109 43.63539446 -7 42 C-7.03738281 42.64066406 -7.07476562 43.28132813 -7.11328125 43.94140625 C-7.54456493 49.61574645 -8.71081495 53.75395093 -11 59 C-11.16824478 60.37038086 -11.28996612 61.74695093 -11.375 63.125 C-12.28193511 73.32801995 -16.6935033 81.97052687 -24 89 C-24.50273437 89.54398437 -25.00546875 90.08796875 -25.5234375 90.6484375 C-28.49263331 93.36627282 -31.96399584 93.28465913 -35.82421875 93.20703125 C-43.37785953 92.48828267 -49.01180785 88.55430389 -54 83 C-58.14308918 76.87452131 -61.08855111 70.60837635 -61.625 63.1875 C-61.69976562 62.21167969 -61.77453125 61.23585937 -61.8515625 60.23046875 C-61.90054688 59.49441406 -61.94953125 58.75835937 -62 58 C-60.515 57.505 -60.515 57.505 -59 57 C-59 56.34 -59 55.68 -59 55 C-57.68 55 -56.36 55 -55 55 C-55.33 52.03 -55.66 49.06 -56 46 C-56.66 46 -57.32 46 -58 46 C-56.72995023 42.18985068 -55.48886603 41.82372543 -52 40 C-48.20402592 38.15067929 -45.22597276 37.54065513 -41 38 C-39.125 39.375 -39.125 39.375 -38 41 C-38 41.66 -38 42.32 -38 43 C-34.81257885 43.05865035 -31.62529882 43.09381259 -28.4375 43.125 C-27.09461914 43.15013672 -27.09461914 43.15013672 -25.72460938 43.17578125 C-20.39910095 43.21479596 -16.03629311 42.75475782 -11 41 C-11.61488281 40.29423828 -11.61488281 40.29423828 -12.2421875 39.57421875 C-12.78101563 38.95160156 -13.31984375 38.32898438 -13.875 37.6875 C-14.40867188 37.07261719 -14.94234375 36.45773438 -15.4921875 35.82421875 C-19 31.58031088 -19 31.58031088 -19 28 C-14.97855708 29.37878043 -12.26938665 31.31742634 -9 34 C-5.29723931 36.55362806 -1.34187499 36.62344872 3 36 C6.44114037 34.88961681 9.70177888 33.47424566 13 32 C13.90363281 31.66742188 14.80726563 31.33484375 15.73828125 30.9921875 C18.15719625 30.21845648 18.15719625 30.21845648 19 28 C19.44986601 21.7018758 18.16539268 15.48448246 15 10 C10.68612285 5.23141688 6.06236478 2.91443098 0 1 C0 0.67 0 0.34 0 0 Z " fill="#161015" transform="translate(224,134)"/>
<path d="M0 0 C2.4375 0.875 2.4375 0.875 3.75 2.9375 C3.976875 3.576875 4.20375 4.21625 4.4375 4.875 C3.7775 4.875 3.1175 4.875 2.4375 4.875 C1.4475 3.39 1.4475 3.39 0.4375 1.875 C-0.8825 2.205 -2.2025 2.535 -3.5625 2.875 C-3.90135038 5.39519972 -4.23370335 7.91598516 -4.5625 10.4375 C-4.65789062 11.14197266 -4.75328125 11.84644531 -4.8515625 12.57226562 C-5.42916417 17.04867855 -5.65739383 21.36161238 -5.5625 25.875 C-4.9025 26.205 -4.2425 26.535 -3.5625 26.875 C-3.69527344 27.49246094 -3.82804687 28.10992187 -3.96484375 28.74609375 C-5.01467629 33.78069212 -5.8532572 38.74419188 -6.31640625 43.8671875 C-6.5625 45.875 -6.5625 45.875 -7.08984375 47.8828125 C-7.71639779 50.18241177 -7.71639779 50.18241177 -7.5625 53.875 C-8.2225 53.875 -8.8825 53.875 -9.5625 53.875 C-9.2325 54.865 -8.9025 55.855 -8.5625 56.875 C-8.89241726 60.37212294 -9.42954428 63.48444256 -10.5625 66.8125 C-11.5505054 69.83826654 -11.8832597 72.66761652 -12.22322083 75.81964111 C-12.56917985 77.91546664 -13.14526481 79.66455078 -13.9284668 81.63574219 C-15.49020251 85.66546418 -16.90088547 89.72932201 -18.26953125 93.828125 C-18.51555084 94.5621756 -18.76157043 95.2962262 -19.01504517 96.05252075 C-19.8037404 98.40933685 -20.58965134 100.7670668 -21.375 103.125 C-21.64361847 103.92979797 -21.91223694 104.73459595 -22.18899536 105.56378174 C-25.51290982 115.53167669 -28.78763459 125.50311263 -31.67358398 135.60864258 C-32.98504254 140.16064399 -34.60654344 144.43544872 -36.4375 148.8125 C-41.41470568 162.5482949 -39.20185684 176.76721491 -34.68359375 190.25 C-32.69519034 196.67940198 -32.80925799 201.68020547 -35.5625 207.875 C-35.73048262 210.58386941 -35.73048262 210.58386941 -35.5625 212.875 C-34.5725 212.545 -33.5825 212.215 -32.5625 211.875 C-32.85253906 212.78378906 -32.85253906 212.78378906 -33.1484375 213.7109375 C-33.40882812 214.54882812 -33.66921875 215.38671875 -33.9375 216.25 C-34.19273438 217.06210937 -34.44796875 217.87421875 -34.7109375 218.7109375 C-35.42246369 221.35468159 -35.93319654 223.91497403 -36.41015625 226.60546875 C-37.46371137 232.01250736 -39.39084136 236.79663399 -41.625 241.8125 C-42.34578963 243.46712682 -43.06587298 245.12206154 -43.78515625 246.77734375 C-44.26094116 247.85230103 -44.26094116 247.85230103 -44.74633789 248.94897461 C-45.42915462 250.56032404 -46.00908464 252.21475391 -46.5625 253.875 C-47.2225 253.875 -47.8825 253.875 -48.5625 253.875 C-48.58828125 254.5040625 -48.6140625 255.133125 -48.640625 255.78125 C-48.69734375 256.6371875 -48.7540625 257.493125 -48.8125 258.375 C-48.88210937 259.62796875 -48.88210937 259.62796875 -48.953125 260.90625 C-49.5625 263.875 -49.5625 263.875 -51.35546875 267.1953125 C-54.77852572 273.72814532 -56.02948986 281.10374103 -57.625 288.25 C-57.80025208 289.0191272 -57.97550415 289.78825439 -58.15606689 290.58068848 C-60.95464634 302.91977785 -62.85526535 315.12259274 -63.9921875 327.734375 C-64.39401239 332.00706131 -65.20997899 335.80607125 -66.5625 339.875 C-69.8625 339.875 -73.1625 339.875 -76.5625 339.875 C-74.63162831 322.18453749 -70.91611797 305.11734678 -66.5625 287.875 C-66.14460205 286.19639893 -66.14460205 286.19639893 -65.71826172 284.48388672 C-61.03315774 265.89207076 -54.35002094 248.4893773 -45.85693359 231.30712891 C-41.26349897 221.99943027 -38.35923748 213.09929183 -36.5625 202.875 C-36.19318359 201.13283203 -36.19318359 201.13283203 -35.81640625 199.35546875 C-35.51493656 195.22301496 -36.58580695 192.22983492 -38 188.4375 C-44.16116739 169.57380924 -40.74543259 151.18311648 -33.89050293 133.10253906 C-32.12489785 128.42614851 -30.4426726 123.72786345 -28.8203125 119 C-28.57006317 118.27240479 -28.31981384 117.54480957 -28.0619812 116.79516602 C-27.53535268 115.26257481 -27.00932907 113.72977562 -26.48388672 112.19677734 C-25.69871201 109.90768738 -24.91000843 107.6198345 -24.12109375 105.33203125 C-17.10869489 85.92888289 -17.10869489 85.92888289 -12.9375 65.8125 C-12.71151468 64.11025171 -12.48231778 62.40842687 -12.25 60.70703125 C-12.13914062 59.88928223 -12.02828125 59.0715332 -11.9140625 58.22900391 C-11.39934801 54.78256149 -10.67324213 51.40634458 -9.9375 48 C-8.10690742 39.1633175 -7.46684647 30.3897512 -7.625 21.375 C-7.68329889 14.85524063 -7.17237201 8.20257182 -5.5625 1.875 C-2.5625 -0.125 -2.5625 -0.125 0 0 Z " fill="#060508" transform="translate(101.5625,56.125)"/>
<path d="M0 0 C2.99324263 1.0975223 3.84610901 1.67682892 5.25 4.625 C5.4975 5.40875 5.745 6.1925 6 7 C5.34 7 4.68 7 4 7 C6.475 13.435 6.475 13.435 9 20 C5 18 5 18 4.0234375 16.08984375 C3.80945313 15.37957031 3.59546875 14.66929688 3.375 13.9375 C2.75707473 11.82209972 2.75707473 11.82209972 2 10 C1.34 9.67 0.68 9.34 0 9 C0 10.32 0 11.64 0 13 C0.66 13 1.32 13 2 13 C2.5349974 23.68013332 1.09374934 33.84230802 -0.58105469 44.36181641 C-0.97578533 46.8475153 -1.35298831 49.33526785 -1.7265625 51.82421875 C-3.20476947 61.42645578 -5.29726192 70.6662527 -8 80 C-8.30808594 81.093125 -8.61617187 82.18625 -8.93359375 83.3125 C-9.74533654 86.11940547 -10.58004214 88.91408076 -11.4375 91.70703125 C-11.82035156 92.9590332 -11.82035156 92.9590332 -12.2109375 94.23632812 C-12.73369862 95.94306555 -13.25970085 97.64881387 -13.7890625 99.35351562 C-15.34200126 104.45546846 -16.58564646 109.51973757 -17.53979492 114.76782227 C-18.14775057 117.71664903 -19.09061416 120.48975324 -20.08203125 123.328125 C-21.76236437 128.21896692 -23.28408182 133.15960881 -24.79296875 138.10546875 C-25.47584916 140.34370971 -26.19331702 142.53563333 -26.98828125 144.73828125 C-31.67488764 158.66483198 -29.75371893 173.61995929 -25.19140625 187.234375 C-23.68914718 191.98249875 -22.40430171 196.99241125 -23 202 C-24.375 203.7890625 -24.375 203.7890625 -26 205 C-26.66 205 -27.32 205 -28 205 C-28.14695312 205.90878906 -28.14695312 205.90878906 -28.296875 206.8359375 C-29.4462833 213.27658746 -31.37659667 219.01456522 -34 225 C-35.37095624 221.30962722 -34.60010967 219.29116165 -33.0625 215.75 C-32.68222656 214.85796875 -32.30195312 213.9659375 -31.91015625 213.046875 C-31.60980469 212.37140625 -31.30945313 211.6959375 -31 211 C-32.98 211.99 -32.98 211.99 -35 213 C-34.85957123 211.35369672 -34.71250671 209.70795821 -34.5625 208.0625 C-34.48128906 207.14597656 -34.40007812 206.22945312 -34.31640625 205.28515625 C-34 203 -34 203 -33 202 C-32.41979719 196.58477373 -33.04706919 192.52916588 -34.79345703 187.35620117 C-40.77680675 169.51986462 -38.75208111 154.47442313 -31.87548828 137.28466797 C-30.61843774 134.00427785 -29.68937057 130.6990869 -28.75 127.3125 C-26.26019043 118.49341366 -23.33838004 109.81510546 -20.4375 101.125 C-20.19970825 100.4109903 -19.9619165 99.69698059 -19.71691895 98.96133423 C-17.18984428 91.38087259 -14.63437677 83.82505986 -11.75097656 76.37036133 C-10.68594668 73.00873092 -10.37801657 69.69874453 -10.17578125 66.19140625 C-10.00150353 64.01874398 -9.55625188 62.10280068 -9 60 C-8.6503582 57.66905466 -8.31445513 55.33595238 -8 53 C-7.34 53 -6.68 53 -6 53 C-6.20625 52.154375 -6.4125 51.30875 -6.625 50.4375 C-7.06580301 46.3968057 -6.18169808 43.87334371 -5 40 C-4.67735821 37.70652224 -4.44688566 35.42033926 -4.24609375 33.11328125 C-4 31 -4 31 -3.34765625 28.85546875 C-3.23292969 28.24316406 -3.11820313 27.63085938 -3 27 C-3.66 26.34 -4.32 25.68 -5 25 C-5.50804665 17.37930022 -4.8412105 9.41407221 -3 2 C-2.01 1.34 -1.02 0.68 0 0 Z " fill="#0E0D12" transform="translate(100,57)"/>
<path d="M0 0 C0.99 0.680625 0.99 0.680625 2 1.375 C6.36064234 3.3938159 10.22140673 4.79224472 15 5.375 C15.33 7.355 15.66 9.335 16 11.375 C17.65 11.045 19.3 10.715 21 10.375 C21 9.715 21 9.055 21 8.375 C20.01 8.045 19.02 7.715 18 7.375 C18 6.385 18 5.395 18 4.375 C20.31 4.375 22.62 4.375 25 4.375 C27.39184542 13.94238169 25.92651144 23.86988623 21.2578125 32.515625 C18.21675957 37.01109455 14.76603249 39.7863225 9.625 41.5 C3.46129022 41.28745828 -1.25897242 39.15849167 -5.5625 34.75 C-7 32.375 -7 32.375 -7 30.375 C-7.99 30.045 -8.98 29.715 -10 29.375 C-12.38415147 24.79009332 -13.80642064 20.60164273 -14 15.375 C-12.6875 12.9375 -12.6875 12.9375 -11 10.375 C-10.72176476 9.00543432 -10.47364007 7.62953257 -10.25 6.25 C-9.7890625 4.1875 -9.7890625 4.1875 -9 2.375 C-3.49385749 -1.09183047 -3.49385749 -1.09183047 0 0 Z " fill="#472D37" transform="translate(181,178.625)"/>
<path d="M0 0 C5.60952779 3.75294649 9.82975653 8.76235569 11.25 15.4375 C11.57551176 19.58777493 11.60049617 20.91175575 9.25 24.4375 C6.7890625 25.7890625 6.7890625 25.7890625 3.875 27.0625 C2.91851562 27.48789063 1.96203125 27.91328125 0.9765625 28.3515625 C-4.47210293 30.52166134 -10.20819391 31.85687547 -15.8359375 29.6015625 C-20.97398137 26.66834971 -25.23657273 22.85736316 -27.75 17.4375 C-28.78305365 12.13845503 -28.77619161 8.02644185 -25.8125 3.4375 C-18.39595808 -1.40595595 -8.34486173 -4.26433463 0 0 Z " fill="#F9AF88" transform="translate(232.75,140.5625)"/>
<path d="M0 0 C0.66 0 1.32 0 2 0 C4.31742557 5.09029893 5.96222505 10.09582718 7.375 15.5 C9.34083509 22.82533832 11.59456298 29.99234139 14.08203125 37.15625 C15 40 15 40 15 42 C15.66 42 16.32 42 17 42 C17.144375 42.969375 17.28875 43.93875 17.4375 44.9375 C17.67562341 47.86486773 17.67562341 47.86486773 19 49 C19.53977577 51.7034148 19.96466987 54.41895551 20.40234375 57.140625 C20.89776865 59.96781844 20.89776865 59.96781844 21.9921875 62.3515625 C28.10164267 78.40664237 24.08957316 95.34712765 18.21484375 110.69921875 C17.9017627 111.52357422 17.58868164 112.34792969 17.26611328 113.19726562 C16.64797816 114.81144337 16.01812985 116.42120344 15.37451172 118.02539062 C13.45690617 122.99954321 12.58337898 127.41250642 12.39526367 132.74926758 C11.91340196 135.49311137 10.79708921 136.91160385 9 139 C8.35165346 137.730447 7.70642185 136.45930294 7.0625 135.1875 C6.70285156 134.47980469 6.34320313 133.77210938 5.97265625 133.04296875 C3.71015478 128.29080702 4.3406617 125.99280838 5.8125 121 C6.16957031 119.7625 6.52664063 118.525 6.89453125 117.25 C8 114 8 114 10 111 C10.52394286 109.43091459 10.999095 107.84510068 11.4375 106.25 C12.32790313 103.12680933 13.26943472 100.4093162 14.625 97.4375 C17.55444171 90.11389573 17.08904177 83.08920158 15.8125 75.4375 C15.60330933 74.12942383 15.60330933 74.12942383 15.38989258 72.79492188 C13.32787842 60.39339573 9.91595261 48.46090932 6.21826172 36.46362305 C4.32935477 30.2877968 2.71001708 24.08078257 1.38085938 17.75976562 C0.94452326 15.70173563 0.94452326 15.70173563 0 13 C-0.99 12.67 -1.98 12.34 -3 12 C-2.01 8.04 -1.02 4.08 0 0 Z " fill="#0D0D11" transform="translate(266,133)"/>
<path d="M0 0 C-0.99 0.33 -1.98 0.66 -3 1 C-3 8.92 -3 16.84 -3 25 C-1.68 25 -0.36 25 1 25 C2.01044795 21.96865616 2.05032949 20.25604057 1.87890625 17.11328125 C1.83056641 16.17548828 1.78222656 15.23769531 1.73242188 14.27148438 C1.67634766 13.29501953 1.62027344 12.31855469 1.5625 11.3125 C1.51029297 10.32443359 1.45808594 9.33636719 1.40429688 8.31835938 C1.27464694 5.87858324 1.13968258 3.43921895 1 1 C6.43200655 1.98910499 9.41908234 3.75720656 13 8 C15.22973461 12.19868155 17 16.21060029 17 21 C15.35 21 13.7 21 12 21 C11.773125 21.5775 11.54625 22.155 11.3125 22.75 C9.65948561 25.58373895 7.60357787 27.03144113 5 29 C4.484375 29.53625 3.96875 30.0725 3.4375 30.625 C0.32351821 33.60359128 -2.70556036 34.29293788 -6.9375 34.3125 C-12.0957977 34.17655658 -14.74828795 33.18079199 -18.48828125 29.55859375 C-23.31428163 24.39728814 -26.74963192 18.56774516 -27.25 11.4375 C-27.1675 10.633125 -27.085 9.82875 -27 9 C-25.845 8.443125 -24.69 7.88625 -23.5 7.3125 C-20.49692397 5.84514761 -17.88666938 4.21150818 -15.1875 2.25 C-10.3783957 -0.88887646 -5.55187232 -0.45925414 0 0 Z " fill="#F7AF8D" transform="translate(144,145)"/>
<path d="M0 0 C4.6129887 3.89070446 7.57620838 8.39486858 8.28515625 14.42578125 C8.43361199 17.05611252 8.44350532 19.40232601 8 22 C5.8125 24 5.8125 24 3 25 C2.175 25.33 1.35 25.66 0.5 26 C-0.325 26.33 -1.15 26.66 -2 27 C-3.6829392 27.97236487 -5.35443434 28.96564444 -7 30 C-5.50104329 26.18447383 -3.2013144 24.46254954 0 22 C0.33 21.34 0.66 20.68 1 20 C2.65 20 4.3 20 6 20 C2.49883385 8.68721938 2.49883385 8.68721938 -6 1 C-8.12967425 0.35088558 -8.12967425 0.35088558 -10 0 C-9.67 0.66 -9.34 1.32 -9 2 C-8.6132826 5.11205946 -8.48615097 8.24465181 -8.3125 11.375 C-8.25255859 12.23867187 -8.19261719 13.10234375 -8.13085938 13.9921875 C-8.08380859 14.8275 -8.03675781 15.6628125 -7.98828125 16.5234375 C-7.94227783 17.28575684 -7.89627441 18.04807617 -7.84887695 18.83349609 C-8.02186081 21.31339709 -8.76079092 22.8667317 -10 25 C-11.65 24.67 -13.3 24.34 -15 24 C-15.02893932 20.37501666 -15.04677792 16.75006287 -15.0625 13.125 C-15.07087891 12.09246094 -15.07925781 11.05992187 -15.08789062 9.99609375 C-15.09272461 8.51689453 -15.09272461 8.51689453 -15.09765625 7.0078125 C-15.10551147 5.64100342 -15.10551147 5.64100342 -15.11352539 4.24658203 C-15 2 -15 2 -14 0 C-21.19775921 -0.95064744 -24.70983652 1.33449448 -30.484375 5.56640625 C-33 7 -33 7 -35.328125 6.71484375 C-35.87984375 6.47894531 -36.4315625 6.24304688 -37 6 C-36.360625 5.7525 -35.72125 5.505 -35.0625 5.25 C-34.0415625 4.63125 -34.0415625 4.63125 -33 4 C-32.8453125 3.071875 -32.8453125 3.071875 -32.6875 2.125 C-31.75449901 -0.75882126 -30.11770025 -1.92353945 -27.48046875 -3.3046875 C-19.33890632 -5.58688925 -7.5421579 -3.89090763 0 0 Z " fill="#AF7C64" transform="translate(155,146)"/>
<path d="M0 0 C2.4375 0.875 2.4375 0.875 3.75 2.9375 C4.0903125 3.8965625 4.0903125 3.8965625 4.4375 4.875 C3.7775 4.875 3.1175 4.875 2.4375 4.875 C1.7775 3.885 1.1175 2.895 0.4375 1.875 C-0.8825 2.205 -2.2025 2.535 -3.5625 2.875 C-3.90135038 5.39519972 -4.23370335 7.91598516 -4.5625 10.4375 C-4.70558594 11.49420898 -4.70558594 11.49420898 -4.8515625 12.57226562 C-5.42916417 17.04867855 -5.65739383 21.36161238 -5.5625 25.875 C-4.9025 26.205 -4.2425 26.535 -3.5625 26.875 C-3.69527344 27.49246094 -3.82804687 28.10992187 -3.96484375 28.74609375 C-5.01467629 33.78069212 -5.8532572 38.74419188 -6.31640625 43.8671875 C-6.5625 45.875 -6.5625 45.875 -7.08984375 47.8828125 C-7.71639779 50.18241177 -7.71639779 50.18241177 -7.5625 53.875 C-8.2225 53.875 -8.8825 53.875 -9.5625 53.875 C-9.2325 54.865 -8.9025 55.855 -8.5625 56.875 C-8.89241726 60.37212294 -9.42954428 63.48444256 -10.5625 66.8125 C-11.5505054 69.83826654 -11.8832597 72.66761652 -12.22322083 75.81964111 C-12.56917985 77.91546664 -13.14526481 79.66455078 -13.9284668 81.63574219 C-15.49020251 85.66546418 -16.90088547 89.72932201 -18.26953125 93.828125 C-18.51555084 94.5621756 -18.76157043 95.2962262 -19.01504517 96.05252075 C-19.8037404 98.40933685 -20.58965134 100.7670668 -21.375 103.125 C-21.64361847 103.92979797 -21.91223694 104.73459595 -22.18899536 105.56378174 C-25.51290982 115.53167669 -28.78763459 125.50311263 -31.67358398 135.60864258 C-32.98504254 140.16064399 -34.60654344 144.43544872 -36.4375 148.8125 C-41.41967626 162.56201241 -39.18464363 176.76602935 -34.6875 190.265625 C-32.17773845 198.31777663 -33.61161043 204.18829254 -36.5625 211.875 C-36.954375 213.050625 -37.34625 214.22625 -37.75 215.4375 C-38.1521875 216.6440625 -38.1521875 216.6440625 -38.5625 217.875 C-39.88133656 213.91849033 -38.85451464 212.11879456 -37.5625 208.1875 C-35.553512 201.35833593 -35.18134441 196.77995397 -37.53515625 190.125 C-44.05195871 170.6913812 -40.99422963 151.8393441 -33.89050293 133.10253906 C-32.12489785 128.42614851 -30.4426726 123.72786345 -28.8203125 119 C-28.57006317 118.27240479 -28.31981384 117.54480957 -28.0619812 116.79516602 C-27.53535268 115.26257481 -27.00932907 113.72977562 -26.48388672 112.19677734 C-25.69871201 109.90768738 -24.91000843 107.6198345 -24.12109375 105.33203125 C-17.10869489 85.92888289 -17.10869489 85.92888289 -12.9375 65.8125 C-12.71151468 64.11025171 -12.48231778 62.40842687 -12.25 60.70703125 C-12.08371094 59.48040771 -12.08371094 59.48040771 -11.9140625 58.22900391 C-11.39934801 54.78256149 -10.67324213 51.40634458 -9.9375 48 C-8.10690742 39.1633175 -7.46684647 30.3897512 -7.625 21.375 C-7.68329889 14.85524063 -7.17237201 8.20257182 -5.5625 1.875 C-2.5625 -0.125 -2.5625 -0.125 0 0 Z " fill="#000001" transform="translate(101.5625,56.125)"/>
<path d="M0 0 C1.875 1.375 1.875 1.375 3 3 C3 3.66 3 4.32 3 5 C11.58 5 20.16 5 29 5 C25 7 25 7 22 7 C21.34 8.32 20.68 9.64 20 11 C18.68 11 17.36 11 16 11 C16 11.99 16 12.98 16 14 C17.32 14.33 18.64 14.66 20 15 C19.67 15.99 19.34 16.98 19 18 C17.35 18 15.7 18 14 18 C13.67 16.02 13.34 14.04 13 12 C12.33613281 11.97421875 11.67226562 11.9484375 10.98828125 11.921875 C3.53147738 11.44289782 3.53147738 11.44289782 0.375 8.8125 C-1.77989657 6.74554956 -1.77989657 6.74554956 -4.07421875 7.18359375 C-6.07705982 7.6904209 -8.04338708 8.33674138 -10 9 C-10.17015625 9.74765625 -10.3403125 10.4953125 -10.515625 11.265625 C-10.75796875 12.25046875 -11.0003125 13.2353125 -11.25 14.25 C-11.48203125 15.22453125 -11.7140625 16.1990625 -11.953125 17.203125 C-13.11799266 20.31523411 -14.51330545 21.84212456 -17 24 C-17.33 21.69 -17.66 19.38 -18 17 C-16.68 17 -15.36 17 -14 17 C-14.33 14.03 -14.66 11.06 -15 8 C-15.66 8 -16.32 8 -17 8 C-15.72995023 4.18985068 -14.48886603 3.82372543 -11 2 C-7.20402592 0.15067929 -4.22597276 -0.45934487 0 0 Z " fill="#171015" transform="translate(183,172)"/>
<path d="M0 0 C0.66 0 1.32 0 2 0 C2.33 2.64 2.66 5.28 3 8 C3.66 8 4.32 8 5 8 C5.33 8.99 5.66 9.98 6 11 C7.6222454 12.70993434 9.29413425 14.37347684 11 16 C11.70125 16.7425 12.4025 17.485 13.125 18.25 C16.64312521 21.53358353 20.64500265 21.38626283 25.22265625 21.359375 C30.75527352 20.64348078 36.06086801 17.93913199 40 14 C41.98821313 13.60235737 43.98944339 13.26224651 46 13 C38.0565177 21.18419389 32.31585507 26.44639602 20.51953125 27.078125 C15.73029207 26.97181558 12.59457115 26.20913928 9 23 C6.62388855 20.17802782 4.76311023 17.23511503 3 14 C2.65839844 13.37480469 2.31679687 12.74960938 1.96484375 12.10546875 C-0.02637785 8.0026261 -0.2759072 4.50648421 0 0 Z " fill="#161215" transform="translate(114,157)"/>
<path d="M0 0 C1.45792884 -0.05399736 2.91642712 -0.09279177 4.375 -0.125 C5.18710937 -0.14820312 5.99921875 -0.17140625 6.8359375 -0.1953125 C9 0 9 0 11 2 C10.875 5 10.875 5 10 8 C7.9453125 9.1875 7.9453125 9.1875 6 10 C5.8981271 16.26206481 5.82833719 22.52391392 5.78027344 28.78662109 C5.76022532 30.91463202 5.73297946 33.04258832 5.69824219 35.17041016 C5.64942452 38.23874433 5.62696274 41.30634673 5.609375 44.375 C5.58872986 45.31802979 5.56808472 46.26105957 5.54681396 47.23266602 C5.54498506 52.68279784 6.2654681 56.36916094 8.96234131 61.10961914 C10.64579225 64.1764883 11.57414246 67.44294427 12.578125 70.78125 C12.79442566 71.48020386 13.01072632 72.17915771 13.23358154 72.89929199 C13.91225664 75.09758106 14.58128811 77.29866231 15.25 79.5 C15.71290233 81.00540507 16.1764387 82.51061534 16.640625 84.015625 C17.76774372 87.67487689 18.88623356 91.33666308 20 95 C20.66 95 21.32 95 22 95 C23.26093166 93.69466933 24.45925526 92.32849821 25.625 90.9375 C35.29580284 79.8429883 47.92358528 69.29969092 63 68 C62.67 68.66 62.34 69.32 62 70 C59.35139573 70.59355614 56.70802678 70.74209269 54 71 C54 71.66 54 72.32 54 73 C51.03 73.495 51.03 73.495 48 74 C48 74.66 48 75.32 48 76 C45.525 76.495 45.525 76.495 43 77 C43 77.66 43 78.32 43 79 C42.1646875 79.309375 42.1646875 79.309375 41.3125 79.625 C38.73951294 80.98006616 38.73951294 80.98006616 36.5625 83.9375 C34 87 34 87 31.625 88.3125 C28.05208507 90.60937388 26.07697927 93.69170588 23.6484375 97.13671875 C22.83246094 98.05904297 22.83246094 98.05904297 22 99 C21.01 99 20.02 99 19 99 C17.76813062 95.3342359 16.53960043 91.66736319 15.3125 88 C14.94817871 86.91178955 14.58385742 85.8235791 14.20849609 84.70239258 C11.69046131 77.15107488 9.28700782 69.57575693 7.0078125 61.94921875 C6.09381854 58.86356262 6.09381854 58.86356262 4 56 C3.83984375 53.12890625 3.83984375 53.12890625 3.9375 49.5625 C4.05692396 43.28298519 3.81784478 37.08051106 3.4375 30.8125 C2.50832562 13.89992432 2.50832562 13.89992432 4 9 C5.31690641 8.30144454 6.6508199 7.63398366 8 7 C8.33 5.68 8.66 4.36 9 3 C4.545 2.01 4.545 2.01 0 1 C0 0.67 0 0.34 0 0 Z " fill="#000000" transform="translate(262,76)"/>
<path d="M0 0 C5.90726016 0.20727229 9.22721365 1.13415334 13.5234375 5.2734375 C17.74059708 10.20461352 18.61817769 15.53584412 18.41796875 21.828125 C18 24 18 24 15.8125 26 C14.884375 26.33 13.95625 26.66 13 27 C12.175 27.33 11.35 27.66 10.5 28 C9.675 28.33 8.85 28.66 8 29 C6.3170608 29.97236487 4.64556566 30.96564444 3 32 C4.49895671 28.18447383 6.7986856 26.46254954 10 24 C10.33 23.34 10.66 22.68 11 22 C12.65 22 14.3 22 16 22 C13.38839972 13.88839359 11.27862937 7.76043058 4 3 C3.195625 2.38125 2.39125 1.7625 1.5625 1.125 C1.046875 0.75375 0.53125 0.3825 0 0 Z " fill="#473227" transform="translate(145,144)"/>
<path d="M0 0 C4.46731521 2.69306236 7.90786413 5.11834964 10 10 C9.01 9.21625 8.02 8.4325 7 7.625 C-0.72134403 2.20167503 -10.79145677 1.73427067 -20 2 C-23.15022759 2.91984667 -24.45825923 3.82136505 -27 6 C-27.33 6.99 -27.66 7.98 -28 9 C-30.5625 10.6875 -30.5625 10.6875 -33 12 C-33.29296875 9.73046875 -33.29296875 9.73046875 -33 7 C-30.98828125 5.05078125 -30.98828125 5.05078125 -28.3125 3.3125 C-27.00732422 2.44044922 -27.00732422 2.44044922 -25.67578125 1.55078125 C-17.77945323 -3.02563076 -8.50944081 -3.60800291 0 0 Z " fill="#100F13" transform="translate(150,141)"/>
<path d="M0 0 C0 7.59 0 15.18 0 23 C-1.65 23.33 -3.3 23.66 -5 24 C-5.33 16.41 -5.66 8.82 -6 1 C-4 0 -4 0 0 0 Z " fill="#694939" transform="translate(226,141)"/>
<path d="M0 0 C0.515625 0.37125 1.03125 0.7425 1.5625 1.125 C1.99747796 5.56177521 2.03752251 7.49163666 -0.6875 11.125 C-3.4375 13.125 -3.4375 13.125 -5.625 13.3125 C-8.35950148 11.52093006 -8.56297526 9.18583659 -9.4375 6.125 C-10.0975 5.465 -10.7575 4.805 -11.4375 4.125 C-9.4375 1.125 -9.4375 1.125 -6.0625 -0.1875 C-2.4375 -0.875 -2.4375 -0.875 0 0 Z " fill="#0B080B" transform="translate(214.4375,177.875)"/>
<path d="M0 0 C5.28035558 2.41328751 9.02712656 6.0708033 12.875 10.3515625 C12.545 11.3415625 12.215 12.3315625 11.875 13.3515625 C11.42769531 12.95324219 10.98039062 12.55492187 10.51953125 12.14453125 C4.44904577 6.82476679 0.74397967 3.93120329 -7.54296875 4.1796875 C-11.10348978 4.41669646 -14.59502325 4.82860298 -18.125 5.3515625 C-12.4719784 -0.45022282 -8.08255283 -2.46636722 0 0 Z " fill="#4A3328" transform="translate(229.125,135.6484375)"/>
<path d="M0 0 C2.99324263 1.0975223 3.84610901 1.67682892 5.25 4.625 C5.4975 5.40875 5.745 6.1925 6 7 C5.34 7 4.68 7 4 7 C5.65 11.29 7.3 15.58 9 20 C5 18 5 18 4.0234375 16.08984375 C3.80945313 15.37957031 3.59546875 14.66929688 3.375 13.9375 C2.75707473 11.82209972 2.75707473 11.82209972 2 10 C1.34 9.67 0.68 9.34 0 9 C-0.33 10.32 -0.66 11.64 -1 13 C-1.99 12.67 -2.98 12.34 -4 12 C-3.9129995 10.37399059 -3.8048219 8.74910322 -3.6875 7.125 C-3.62949219 6.22007813 -3.57148437 5.31515625 -3.51171875 4.3828125 C-3 2 -3 2 0 0 Z " fill="#1A1820" transform="translate(100,57)"/>
<path d="M0 0 C6.37192531 0.63719253 10.70953484 2.47302323 16 6 C16 6.66 16 7.32 16 8 C16.66 8 17.32 8 18 8 C19.25390625 9.390625 19.25390625 9.390625 20.5625 11.25 C21.21412109 12.15492188 21.21412109 12.15492188 21.87890625 13.078125 C23.03255742 15.05581272 23.55972779 16.76401078 24 19 C23.34 19 22.68 19 22 19 C22 20.98 22 22.96 22 25 C21.34 25.33 20.68 25.66 20 26 C19.80664062 25.18015625 19.61328125 24.3603125 19.4140625 23.515625 C19.15367187 22.43796875 18.89328125 21.3603125 18.625 20.25 C18.36976563 19.18265625 18.11453125 18.1153125 17.8515625 17.015625 C16.11173629 10.85440559 13.22510009 7.60804784 8 4 C5.35561236 2.75856845 2.79621717 1.88301595 0 1 C0 0.67 0 0.34 0 0 Z " fill="#171315" transform="translate(224,134)"/>
<path d="M0 0 C0 0.33 0 0.66 0 1 C-0.58265625 0.99097656 -1.1653125 0.98195312 -1.765625 0.97265625 C-8.82847267 1.2280737 -13.36236399 3.57788201 -19.23828125 7.40625 C-21.92362881 8.95592724 -23.95069336 9.60009093 -27 10 C-26.34 9.01 -25.68 8.02 -25 7 C-24.34 7 -23.68 7 -23 7 C-22.979375 6.4225 -22.95875 5.845 -22.9375 5.25 C-21.76205965 2.42894316 -20.18843507 1.12761118 -17.51953125 -0.31640625 C-11.91010974 -1.83834232 -5.70903891 -0.67597372 0 0 Z " fill="#5A4034" transform="translate(145,143)"/>
<path d="M0 0 C0.66 0 1.32 0 2 0 C2.33452052 7.43378943 2.13902852 13.19877155 -1 20 C-2.65 19.67 -4.3 19.34 -6 19 C-6 16 -6 16 -4 14 C-3.27359045 11.68456957 -2.61568542 9.34730065 -2 7 C-1.62836316 5.68654376 -1.25351929 4.37398938 -0.875 3.0625 C-0.441875 1.5465625 -0.441875 1.5465625 0 0 Z " fill="#0F0E12" transform="translate(246,153)"/>
<path d="M0 0 C0.598125 0.165 1.19625 0.33 1.8125 0.5 C4.11344336 1.1114124 4.11344336 1.1114124 7 1 C7.66 1.33 8.32 1.66 9 2 C8.34 2.66 7.68 3.32 7 4 C5.68 4 4.36 4 3 4 C3 4.99 3 5.98 3 7 C4.32 7.33 5.64 7.66 7 8 C6.67 8.99 6.34 9.98 6 11 C4.35 11 2.7 11 1 11 C0.67 9.02 0.34 7.04 0 5 C-3.3 4.67 -6.6 4.34 -10 4 C-10 3.67 -10 3.34 -10 3 C-6.7 3.33 -3.4 3.66 0 4 C0 2.68 0 1.36 0 0 Z " fill="#24161B" transform="translate(196,179)"/>
<path d="M0 0 C1.32 0 2.64 0 4 0 C3.67 6.93 3.34 13.86 3 21 C2.01 21 1.02 21 0 21 C0 14.07 0 7.14 0 0 Z " fill="#5A4034" transform="translate(141,149)"/>
<path d="M0 0 C0 0.66 0 1.32 0 2 C-0.87736816 2.12846313 -0.87736816 2.12846313 -1.77246094 2.25952148 C-4.43194943 2.65011078 -7.09097419 3.04377373 -9.75 3.4375 C-11.13058594 3.63956055 -11.13058594 3.63956055 -12.5390625 3.84570312 C-13.42851562 3.97783203 -14.31796875 4.10996094 -15.234375 4.24609375 C-16.05131836 4.36654053 -16.86826172 4.4869873 -17.70996094 4.61108398 C-18.46567383 4.73942627 -19.22138672 4.86776855 -20 5 C-20.73766602 5.11867432 -21.47533203 5.23734863 -22.23535156 5.35961914 C-22.81768555 5.57094482 -23.40001953 5.78227051 -24 6 C-24.33 6.99 -24.66 7.98 -25 9 C-25.66 9 -26.32 9 -27 9 C-27.37952295 15.19887485 -26.8352113 19.4477112 -24 25 C-27 24 -27 24 -28.125 22.375 C-29.77922442 17.8849623 -30.47261949 14.41785846 -28.9375 9.8125 C-26.28262131 5.95864384 -23.36105472 3.63375544 -18.76342773 2.3996582 C-16.26401479 1.94136986 -13.76999055 1.57602617 -11.25 1.25 C-10.38761719 1.12496094 -9.52523438 0.99992188 -8.63671875 0.87109375 C-2.51991758 0 -2.51991758 0 0 0 Z " fill="#000000" transform="translate(353,236)"/>
<path d="M0 0 C-0.51949219 0.37511719 -1.03898438 0.75023437 -1.57421875 1.13671875 C-10.03664043 7.14843426 -10.03664043 7.14843426 -15 16 C-15.33 16 -15.66 16 -16 16 C-15.6166563 10.34568045 -15.22219898 7.10491567 -11 3 C-3.91666667 -1.95833333 -3.91666667 -1.95833333 0 0 Z " fill="#1A181E" transform="translate(217,136)"/>
<path d="M0 0 C0.99 0.33 1.98 0.66 3 1 C2.24074219 1.39832031 1.48148438 1.79664062 0.69921875 2.20703125 C-0.29464844 2.73683594 -1.28851563 3.26664062 -2.3125 3.8125 C-3.29863281 4.33457031 -4.28476563 4.85664062 -5.30078125 5.39453125 C-7.97205136 6.82788954 -7.97205136 6.82788954 -9.65625 8.6875 C-11 10 -11 10 -14.1875 10.1875 C-15.115625 10.125625 -16.04375 10.06375 -17 10 C-17 9.67 -17 9.34 -17 9 C-15.35 8.67 -13.7 8.34 -12 8 C-12 6.68 -12 5.36 -12 4 C-13.32 3.67 -14.64 3.34 -16 3 C-11.10425944 1.33544821 -8.03348345 1.08482119 -3 2 C-2.01 1.34 -1.02 0.68 0 0 Z " fill="#141319" transform="translate(227,108)"/>
<path d="M0 0 C0.66 0.33 1.32 0.66 2 1 C1.175 1.598125 0.35 2.19625 -0.5 2.8125 C-3.2368597 5.51834713 -3.39155662 7.71732866 -3.4375 11.5 C-3.34335815 15.44288211 -2.62172015 18.40486136 -1 22 C-4.7421185 19.69715785 -5.86553953 18.51263053 -7 14.1875 C-7.28257058 9.86013347 -6.15088831 6.78259669 -4 3 C-1.8125 1.0625 -1.8125 1.0625 0 0 Z " fill="#644638" transform="translate(209,141)"/>
<path d="M0 0 C0.33 0 0.66 0 1 0 C2.08242242 5.41211212 3.09891374 11.25271564 1 16.5 C0.67 16.995 0.34 17.49 0 18 C-1.32 17.67 -2.64 17.34 -4 17 C-3.01 17 -2.02 17 -1 17 C-1.309375 15.2984375 -1.309375 15.2984375 -1.625 13.5625 C-2.25310502 8.75276427 -1.29531167 4.62458381 0 0 Z " fill="#855E4C" transform="translate(145,153)"/>
<path d="M0 0 C1.65 0 3.3 0 5 0 C5.33 0.99 5.66 1.98 6 3 C5.34 3 4.68 3 4 3 C5.65 7.29 7.3 11.58 9 16 C4.61268341 13.80634171 4.37907364 13.43467606 2.8125 9.125 C2.48894531 8.26132813 2.16539063 7.39765625 1.83203125 6.5078125 C1.1157992 4.34902858 0.51000333 2.21516597 0 0 Z " fill="#121117" transform="translate(100,61)"/>
<path d="M0 0 C2.31 0 4.62 0 7 0 C6 3 6 3 4.109375 4.0625 C2.94148437 4.5265625 2.94148437 4.5265625 1.75 5 C-1.69767054 6.42965605 -4.85343817 7.96996011 -8 10 C-6.50104329 6.18447383 -4.2013144 4.46254954 -1 2 C-0.67 1.34 -0.34 0.68 0 0 Z " fill="#6E4E3E" transform="translate(156,166)"/>
<path d="M0 0 C0.99 0.33 1.98 0.66 3 1 C2.67 7.27 2.34 13.54 2 20 C1.01 20 0.02 20 -1 20 C-1.12527964 13.48545861 -1.12527964 13.48545861 -0.5 11.0625 C0.06693284 8.72390203 0.09783433 6.65273419 0.0625 4.25 C0.05347656 3.45078125 0.04445312 2.6515625 0.03515625 1.828125 C0.02355469 1.22484375 0.01195312 0.6215625 0 0 Z " fill="#2B1E17" transform="translate(223,143)"/>
<path d="M0 0 C6.37192531 0.63719253 10.70953484 2.47302323 16 6 C16 6.66 16 7.32 16 8 C16.66 8 17.32 8 18 8 C18.66 9.32 19.32 10.64 20 12 C16.44610653 11.41816788 14.79632651 10.11871646 12.25 7.625 C8.37175054 4.07479796 5.005771 2.51960905 0 1 C0 0.67 0 0.34 0 0 Z " fill="#141217" transform="translate(224,134)"/>
<path d="M0 0 C6.625 -0.25 6.625 -0.25 10 2 C9.1875 4.4375 9.1875 4.4375 8 7 C7.01 7.33 6.02 7.66 5 8 C3.79117904 10.00016466 3.79117904 10.00016466 3 12 C3.26041667 9.98177083 3.52083333 7.96354167 3.78125 5.9453125 C4.0372485 3.99501656 4.0372485 3.99501656 4 2 C2.68 2 1.36 2 0 2 C0 1.34 0 0.68 0 0 Z " fill="#121116" transform="translate(262,77)"/>
<path d="M0 0 C2.31 0.66 4.62 1.32 7 2 C7 3.65 7 5.3 7 7 C3.62537285 6.45276317 1.91765 5.9451 -1 4 C-0.67 2.68 -0.34 1.36 0 0 Z " fill="#14131A" transform="translate(156,178)"/>
<path d="M0 0 C1.53817493 3.07634986 0.50657543 5.5438218 -0.25390625 8.80078125 C-1.2147269 11.63293846 -2.64378326 13.19356716 -5 15 C-5.33 12.69 -5.66 10.38 -6 8 C-4.68 8 -3.36 8 -2 8 C-2.061875 6.576875 -2.061875 6.576875 -2.125 5.125 C-2 2 -2 2 0 0 Z " fill="#2C1B20" transform="translate(171,181)"/>
<path d="M0 0 C0.70640625 0.05220703 1.4128125 0.10441406 2.140625 0.15820312 C3.88579987 0.28791207 5.63045725 0.42454954 7.375 0.5625 C7.375 0.8925 7.375 1.2225 7.375 1.5625 C-1.535 2.5525 -1.535 2.5525 -10.625 3.5625 C-10.295 2.5725 -9.965 1.5825 -9.625 0.5625 C-6.5270403 -0.98647985 -3.36283448 -0.26989539 0 0 Z " fill="#372721" transform="translate(137.625,142.4375)"/>
<path d="M0 0 C1.32 0 2.64 0 4 0 C4.36923077 6.52307692 4.36923077 6.52307692 2.5 8.9375 C2.005 9.288125 1.51 9.63875 1 10 C-0.1577506 6.52674819 -0.06866652 3.63932552 0 0 Z " fill="#34241D" transform="translate(141,149)"/>
<path d="M0 0 C0 0.99 0 1.98 0 3 C0.66 3.33 1.32 3.66 2 4 C-1.96 4.66 -5.92 5.32 -10 6 C-4.15384615 0 -4.15384615 0 0 0 Z " fill="#614435" transform="translate(221,135)"/>
<path d="M0 0 C0.99 0 1.98 0 3 0 C3 1.98 3 3.96 3 6 C1.02 6.33 -0.96 6.66 -3 7 C-3 5.35 -3 3.7 -3 2 C-2.01 2 -1.02 2 0 2 C0 1.34 0 0.68 0 0 Z " fill="#574B4F" transform="translate(166,183)"/>
<path d="M0 0 C4.21878192 -0.19622241 7.17010894 0.19769832 11 2 C9 4 9 4 5.5 4.1875 C2 4 2 4 0 3 C0 2.01 0 1.02 0 0 Z " fill="#3A281F" transform="translate(221,135)"/>
<path d="M0 0 C0.598125 0.165 1.19625 0.33 1.8125 0.5 C4.11344336 1.1114124 4.11344336 1.1114124 7 1 C7.66 1.33 8.32 1.66 9 2 C8.34 2.66 7.68 3.32 7 4 C5.68 4 4.36 4 3 4 C2.67 4.66 2.34 5.32 2 6 C0 3 0 3 0 0 Z " fill="#2A2426" transform="translate(196,179)"/>
<path d="M0 0 C2.31 0 4.62 0 7 0 C7 0.99 7 1.98 7 3 C6.34 3 5.68 3 5 3 C4.67 3.66 4.34 4.32 4 5 C2.68 4.34 1.36 3.68 0 3 C0 2.01 0 1.02 0 0 Z " fill="#382C30" transform="translate(199,183)"/>
<path d="M0 0 C0.99 0.33 1.98 0.66 3 1 C3.33 1.99 3.66 2.98 4 4 C3.01 4 2.02 4 1 4 C1 4.66 1 5.32 1 6 C0.01 6 -0.98 6 -2 6 C-1.125 1.125 -1.125 1.125 0 0 Z " fill="#383334" transform="translate(165,179)"/>
<path d="M0 0 C0.33 0 0.66 0 1 0 C1.04898438 0.59167969 1.09796875 1.18335938 1.1484375 1.79296875 C1.56456867 6.19104472 2.04965595 9.96928897 4 14 C1.4375 12.625 1.4375 12.625 -1 10 C-1.15019141 6.57778137 -0.64674116 3.35537 0 0 Z " fill="#8E644F" transform="translate(204,149)"/>
<path d="M0 0 C0.66 0 1.32 0 2 0 C2 0.66 2 1.32 2 2 C2.66 2 3.32 2 4 2 C4.33 2.99 4.66 3.98 5 5 C3.35 5.33 1.7 5.66 0 6 C-0.38218767 4.34385343 -0.71395102 2.67542976 -1 1 C-0.67 0.67 -0.34 0.34 0 0 Z " fill="#191820" transform="translate(331,259)"/>
<path d="M0 0 C2.64 0.33 5.28 0.66 8 1 C8.33 2.65 8.66 4.3 9 6 C6.03 4.35 3.06 2.7 0 1 C0 0.67 0 0.34 0 0 Z " fill="#4E372C" transform="translate(145,144)"/>
<path d="M0 0 C3.28788824 3.11016455 5.83735988 6.01618925 8 10 C4.23077307 8.74359102 2.574302 6.99175638 0 4 C0 2.68 0 1.36 0 0 Z " fill="#000000" transform="translate(134,105)"/>
<path d="M0 0 C0.99 0.33 1.98 0.66 3 1 C3 3.97 3 6.94 3 10 C1.19669467 6.39338934 0.53400897 3.91606575 0 0 Z " fill="#533A2D" transform="translate(242,150)"/>
<path d="M0 0 C0.625 1.8125 0.625 1.8125 1 4 C0.01 5.485 0.01 5.485 -1 7 C-2.32 6.67 -3.64 6.34 -5 6 C-4.360625 5.7525 -3.72125 5.505 -3.0625 5.25 C-0.81258459 4.18437567 -0.81258459 4.18437567 -0.25 1.875 C-0.1675 1.25625 -0.085 0.6375 0 0 Z " fill="#4E372D" transform="translate(123,146)"/>
<path d="M0 0 C0.99 0.33 1.98 0.66 3 1 C3 2.65 3 4.3 3 6 C1.35 5.01 -0.3 4.02 -2 3 C-1.34 2.01 -0.68 1.02 0 0 Z " fill="#1B1A23" transform="translate(214,174)"/>
<path d="M0 0 C0.66 0.33 1.32 0.66 2 1 C-0.31 3.31 -2.62 5.62 -5 8 C-5 5 -5 5 -2.5 2.3125 C-1.675 1.549375 -0.85 0.78625 0 0 Z " fill="#E19D7A" transform="translate(211,141)"/>
</svg>
